<?xml version="1.0" encoding="UTF-8" standalone="no"?>
<!DOCTYPE svg PUBLIC "-//W3C//DTD SVG 1.1//EN" "http://www.w3.org/Graphics/SVG/1.1/DTD/svg11.dtd">
<svg width="100%" height="100%" viewBox="0 0 500 400" version="1.1" xmlns="http://www.w3.org/2000/svg" xmlns:xlink="http://www.w3.org/1999/xlink" xml:space="preserve" xmlns:serif="http://www.serif.com/" style="fill-rule:evenodd;clip-rule:evenodd;stroke-linejoin:round;stroke-miterlimit:2;">
    <g id="Microbe">
        <path d="M281,51.324C278.323,50.197 275.815,48.543 273.636,46.364C264.605,37.332 264.605,22.668 273.636,13.636C282.668,4.605 297.332,4.605 306.364,13.636C315.395,22.668 315.395,37.332 306.364,46.364C304.185,48.543 301.677,50.197 299,51.324L299,80.333C321.983,82.04 343.172,90.233 360.747,103.09C381.311,91.816 398.134,75.753 410.217,53.62C410.074,52.433 410,51.225 410,50C410,33.443 423.443,20 440,20C456.557,20 470,33.443 470,50C470,66.557 456.557,80 440,80C438.775,80 437.567,79.926 436.38,79.783C414.014,90.522 398.72,108.182 386.91,129.253C401.427,149.095 410,173.554 410,200C410,207.756 409.263,215.34 407.855,222.686C418.253,232.178 429.661,235.41 441.924,233.333C450.884,228.986 461.753,232.523 466.406,241.406C471.149,250.461 467.649,261.663 458.594,266.406C449.711,271.059 438.762,267.779 433.871,259.103C422.11,250.307 410.812,247.523 399.799,248.456C392.283,265.444 380.939,280.367 366.864,292.126L384.822,317.266C387.697,316.609 390.745,316.49 393.833,317.005C406.524,319.12 415.11,331.141 412.995,343.833C410.88,356.524 398.859,365.11 386.167,362.995C373.476,360.88 364.89,348.859 367.005,336.167C367.519,333.08 368.62,330.235 370.175,327.729L352.228,302.603C334.079,313.641 312.776,320 290,320C268.303,320 247.943,314.229 230.377,304.143C209.905,313.8 199.964,328.327 196.874,346.022C196.921,346.346 196.964,346.672 197,347C198.656,361.902 187.902,375.344 173,377C158.098,378.656 144.656,367.902 143,353C141.344,338.098 152.098,324.656 167,323C167.328,322.964 167.655,322.933 167.982,322.909C186.959,314.869 197.574,300.478 201.501,281.009C187.682,265.924 177.664,247.296 172.976,226.654L115.275,235.309C114.538,238.836 113.048,242.264 110.767,245.35C102.295,256.811 86.112,259.239 74.65,250.767C63.189,242.295 60.761,226.112 69.233,214.65C77.705,203.189 93.888,200.761 105.35,209.233C108.435,211.514 110.866,214.353 112.605,217.509L170.322,208.851C170.108,205.922 170,202.974 170,200C170,189.595 171.327,179.498 173.823,169.862C149.749,146.365 123.074,134.883 94.884,130.393C91.842,132.265 88.537,133.821 85,135C60.164,143.279 33.279,129.836 25,105C16.721,80.164 30.164,53.279 55,45C79.836,36.721 106.721,50.164 115,75C116.179,78.537 116.917,82.115 117.245,85.672C140.605,106.954 166.786,120.51 196.221,125.16C216.46,99.838 246.737,82.879 281,80.333L281,51.324ZM395.24,340.873C394.758,343.765 392.019,345.722 389.127,345.24C386.235,344.758 384.278,342.019 384.76,339.127C385.242,336.235 387.981,334.278 390.873,334.76C393.765,335.242 395.722,337.981 395.24,340.873ZM370,201C370,206.795 369.382,212.446 368.208,217.892C362.335,245.121 342.549,267.2 316.676,276.317C311.471,278.152 308.734,283.867 310.568,289.073C312.403,294.278 318.118,297.015 323.324,295.181C355.679,283.779 380.414,256.161 387.758,222.108C389.226,215.303 390,208.241 390,201C390,195.481 385.519,191 380,191C374.481,191 370,195.481 370,201ZM250,201C233.994,201 221,213.994 221,230C221,246.006 233.994,259 250,259C266.006,259 279,246.006 279,230C279,213.994 266.006,201 250,201ZM85.35,236.292C81.877,233.725 81.142,228.822 83.708,225.35C86.275,221.877 91.178,221.142 94.65,223.708C98.123,226.275 98.858,231.178 96.292,234.65C93.725,238.123 88.822,238.858 85.35,236.292ZM320,121C298.475,121 281,138.475 281,160C281,181.525 298.475,199 320,199C341.525,199 359,181.525 359,160C359,138.475 341.525,121 320,121ZM320,139C331.59,139 341,148.41 341,160C341,171.59 331.59,181 320,181C308.41,181 299,171.59 299,160C299,148.41 308.41,139 320,139ZM286.364,26.364C288.371,24.357 291.629,24.357 293.636,26.364C295.643,28.371 295.643,31.629 293.636,33.636C291.629,35.643 288.371,35.643 286.364,33.636C284.357,31.629 284.357,28.371 286.364,26.364Z" style="fill:white;"/>
    </g>
</svg>
